<svg xmlns="http://www.w3.org/2000/svg" xmlns:xlink="http://www.w3.org/1999/xlink" viewBox="0 0 1600 1200"><defs><style>.a{fill:url(#a);}.b{fill:url(#b);}.c{fill:url(#c);}</style><linearGradient id="a" x1="1255.44" y1="1179.56" x2="1665.56" y2="769.44" gradientUnits="userSpaceOnUse"><stop offset="0" stop-color="#f073c6"/><stop offset="0.16" stop-color="#f570b6"/><stop offset="0.4" stop-color="#f96da5"/><stop offset="0.67" stop-color="#fc6b9b"/><stop offset="1" stop-color="#fd6a98"/></linearGradient><linearGradient id="b" x1="39.13" y1="766.97" x2="153.8" y2="652.31" xlink:href="#a"/><linearGradient id="c" x1="180.3" y1="1057.1" x2="384.07" y2="853.33" xlink:href="#a"/></defs><title>bg</title><path class="a" d="M1460.5,1264.5a290,290,0,1,1,205.06-84.94A288.11,288.11,0,0,1,1460.5,1264.5Z"/><path d="M1460.5,685a288.6,288.6,0,1,1-112.69,22.75A287.64,287.64,0,0,1,1460.5,685m0-1C1300.06,684,1170,814.06,1170,974.5S1300.06,1265,1460.5,1265,1751,1134.94,1751,974.5,1620.94,684,1460.5,684Z"/><path class="b" d="M164,694.23c0,37.28,4,75.77-59,84.77-44.55,6.36-90-17.73-90-55s43-100,92.08-96C144.23,631.06,164,657,164,694.23Z"/><path class="c" d="M434.09,955.35c.13,82.1-55,136.91-149.09,139.65-103,3-148-80-148.22-139.65-.36-96.35,66.55-148.66,148.65-148.66S434,900,434.09,955.35Z"/></svg>